<svg width="32" height="28" viewBox="0 0 32 28" fill="none" xmlns="http://www.w3.org/2000/svg">
<path fill-rule="evenodd" clip-rule="evenodd" d="M1.94336 14.4853C1.77947 14.084 1.5532 13.708 1.26855 13.374C-0.0387039 11.8398 -0.038813 9.58294 1.26855 8.04882C1.82881 7.39139 2.16762 6.57391 2.23633 5.71288C2.39685 3.70375 3.99278 2.10858 6.00195 1.94823C6.8629 1.87948 7.68052 1.54067 8.33789 0.980459C9.872 -0.326751 12.128 -0.326725 13.6621 0.980459C14.3195 1.54066 15.1371 1.87947 15.998 1.94823C17.2812 2.05063 18.3946 2.7391 19.0742 3.74608C19.3797 3.72277 19.6885 3.7119 20 3.7119C26.6274 3.7119 32 9.08449 32 15.7119C31.9999 22.3392 26.6273 27.7119 20 27.7119H8C3.5818 27.7119 0.000131944 24.1301 0 19.7119C0 17.7141 0.732534 15.8873 1.94336 14.4853ZM20 6.7119C16.0788 6.7119 12.7369 9.22237 11.5059 12.7344C11.0537 14.0241 9.78675 14.8452 8.4248 14.7314C8.26466 14.7181 8.12536 14.7119 8 14.7119C5.23858 14.7119 3 16.9505 3 19.7119C3.00013 22.4732 5.23866 24.7119 8 24.7119H20C24.9705 24.7119 28.9999 20.6824 29 15.7119C29 10.7413 24.9706 6.7119 20 6.7119ZM9.01172 10.8887C8.94725 11.0354 8.88488 11.1833 8.82617 11.333L8.6748 11.7422C8.77635 11.4525 8.88907 11.1677 9.01172 10.8887Z" fill="#1F1F21"/>
</svg>
